# xmcd
#
# Track frame offsets: 
#        300
#        3353
#        21760
#        41516
#        63615
#        87962
#        106757
#        122401
#        144553
#        168689
#        190382
#        207432
#        226789
#        245057
#        267759
#
# Disc length: 3849 seconds
#
# Revision: 0
# Processed by: cddbd v1.5.2PL0 Copyright (c) Steve Scherf et al.
# Submitted via: ExactAudioCopy v0.99pb5
#
DISCID=cc0f050f
DTITLE=Bronco Bob - Giddy Up
DYEAR=2008
DGENRE=General Blues
TTITLE0=Intro
TTITLE1=Blues Is My Business
TTITLE2=Oh Pretty Woman
TTITLE3=Still Got The Blues
TTITLE4=Bang A Gong
TTITLE5=Do You Want My Love
TTITLE6=Why Haven't I Heard From You
TTITLE7=I Shall Be Released
TTITLE8=I Need To Know
TTITLE9=Sensible Shoes
TTITLE10=Supernatural Thing
TTITLE11=Cut Off My Right Arm
TTITLE12=Blues Ain't Nothin
TTITLE13=Black And Blue
TTITLE14=When It All Comes Down
EXTD=
EXTT0=
EXTT1=
EXTT2=
EXTT3=
EXTT4=
EXTT5=
EXTT6=
EXTT7=
EXTT8=
EXTT9=
EXTT10=
EXTT11=
EXTT12=
EXTT13=
EXTT14=
PLAYORDER=
